<svg fill="none" xmlns="http://www.w3.org/2000/svg">
<path fill-rule="evenodd" clip-rule="evenodd" d="M30.5356 23.616V4.703H48.2698V8.42691H35.2726V23.616H30.5356Z" fill="#FBBC04"/>
<path d="M62.3994 23.5624V9.49046H68.3568C69.8546 9.49046 70.9413 9.61812 71.62 9.87036C72.2986 10.1226 72.843 10.5715 73.251 11.217C73.6591 11.8656 73.861 12.6028 73.861 13.4347C73.861 14.49 73.5514 15.3651 72.9343 16.0529C72.3181 16.7375 71.3913 17.174 70.1611 17.3501C70.7742 17.7104 71.2806 18.1037 71.6784 18.5331C72.0762 18.9624 72.6113 19.7232 73.2869 20.8176L75 23.5624H71.6159L69.5706 20.4995C68.8427 19.4051 68.3476 18.7163 68.08 18.4322C67.8124 18.147 67.5284 17.9534 67.2281 17.8453C66.9277 17.7403 66.4551 17.6878 65.802 17.6878H65.231V23.5624H62.3994ZM14.4736 0V13.6221C14.4736 17.6445 13.1941 20.2812 9.59164 20.2812C5.99016 20.2812 4.71175 17.6445 4.71175 13.6221V0H0V15.0758C0 21.3963 3.56662 24 9.59164 24C15.6167 24 19.1843 21.3963 19.1843 15.0758V3.71773H24.6301V23.5933H29.3429V3.71773H48.0935V0H14.4736ZM36.1614 9.53987V23.616H40.5943V13.2607H48.0648V9.53987H36.1614ZM50.8312 23.5635V9.49046H55.3697C57.089 9.49046 58.2116 9.56252 58.7334 9.70254C59.5361 9.91257 60.2117 10.3718 60.753 11.0791C61.2943 11.7864 61.5649 12.7006 61.5649 13.8187C61.5649 14.6835 61.4091 15.4104 61.0954 15.9973C60.7827 16.5872 60.388 17.0495 59.9052 17.3861C59.4254 17.7207 58.9364 17.9431 58.4402 18.0522C57.7646 18.1861 56.7855 18.2551 55.503 18.2551H53.6597V23.5635H50.8312ZM53.6597 11.8718V15.8634H55.2067C56.3221 15.8634 57.0695 15.7903 57.4447 15.6431C57.8199 15.4959 58.1131 15.2663 58.3284 14.9523C58.5406 14.6372 58.6483 14.2738 58.6483 13.8578C58.6483 13.3461 58.4986 12.924 58.1982 12.5894C57.9009 12.2589 57.5196 12.0489 57.0633 11.9676C56.724 11.9017 56.0453 11.8718 55.0273 11.8718H53.6597ZM65.231 15.4403H67.3224C68.6797 15.4403 69.5286 15.3847 69.8679 15.2704C70.2032 15.1551 70.4677 14.9553 70.6604 14.6732C70.8501 14.3922 70.9474 14.0411 70.9474 13.619C70.9474 13.1433 70.8203 12.7634 70.5691 12.4721C70.318 12.1797 69.9622 11.9964 69.5019 11.9182C69.2743 11.8883 68.5854 11.8718 67.4372 11.8718H65.231V15.4403Z" fill="#A1A1A1"/>
</svg>
