<svg width="380" height="148" viewBox="0 0 380 148" fill="none" xmlns="http://www.w3.org/2000/svg">
<path d="M7.62244 58.9953L7.86109 58.6979C13.7577 51.3621 19.6494 44.1949 25.377 37.3845C31.1046 30.5741 36.9714 23.7637 42.7785 17.102L42.8531 17.0178L42.9376 16.9434C43.8228 16.1045 44.7831 15.3479 45.8064 14.6832C46.6723 14.124 47.5857 13.6414 48.536 13.2408L48.9188 13.0822L78.5909 12.0909L57.9129 71.5702L2.59091 73.4091L7.62244 58.9953ZM42.7636 51.1539H43.2111L43.574 50.118L42.7636 51.1539Z" fill="#F43F5E"/>
<path d="M75.7065 15.0125L56.6746 69.675L6.34395 71.3511L10.1622 60.4265C16.0456 53.1172 21.8497 46.0707 27.5746 39.2872C33.2996 32.5037 39.0773 25.7892 44.9078 19.1437C45.6869 18.3991 46.5304 17.7244 47.4286 17.1274C48.1815 16.6397 48.9771 16.2206 49.8057 15.8752L75.7065 15.0125ZM50.291 39.2083C48.1285 41.7423 46.0898 44.2237 44.1749 46.6525C42.26 49.0812 40.3963 51.5002 38.5837 53.9092L45.2396 53.6874L50.291 39.2083ZM82.0455 10.3636L49.6571 11.4383L48.835 11.4679L48.0773 11.7834C47.0098 12.2317 45.984 12.7728 45.0118 13.4004C43.8883 14.1391 42.8341 14.9773 41.8622 15.9048L41.6938 16.0576L41.5502 16.2499C35.7361 22.8806 29.8874 29.6789 24.1625 36.4624C18.4376 43.2459 12.5591 50.3548 6.68566 57.6609L6.19043 58.2524L5.94281 58.9673L0 76L59.8837 74.0083L60.8742 71.1293L82.0455 10.3636Z" fill="#4C0519"/>
<path d="M71.2158 71.4921C70.4449 71.1677 69.7666 70.6528 69.2432 69.9944C68.6119 69.1956 68.2963 68.1172 68.2569 66.5995L68.2273 65.7707C68.2273 65.3204 68.2669 64.871 68.3456 64.4277L78.702 12.2313L104.011 11.3726L99.6908 33.025L118.598 4.35319L145.091 3.45455L103.764 66.3898C103.092 67.4095 102.286 68.3316 101.368 69.1307C100.228 70.17 98.7626 70.7678 97.2299 70.8181L71.6597 71.6818L71.2158 71.4921Z" fill="#F43F5E"/>
<path d="M140.891 5.63408L101.723 64.6583C101.161 65.5121 100.482 66.2818 99.7048 66.9442C98.9448 67.6365 97.9645 68.0362 96.9382 68.0722L71.7166 68.9169C71.2776 68.7329 70.8921 68.4406 70.5961 68.0672C70.2283 67.4488 70.0555 66.7334 70.1003 66.0149L70.0706 65.19C70.0755 64.8899 70.1053 64.5907 70.1598 64.2956L80.2296 14.1612L101.088 13.4606L95.064 43.3504L119.735 6.33473L140.891 5.63408ZM149.409 0.863636L140.742 1.16179L119.586 1.86245L117.296 1.94195L116.022 3.85013L103.919 22.0325L105.466 14.3699L106.577 8.80443L76.5458 9.80821L65.7819 63.4061V63.5502C65.6745 64.1368 65.6264 64.7328 65.6381 65.3292V66.154C65.7075 68.1417 66.1934 69.6822 67.1255 70.8549C67.8906 71.8142 68.8848 72.5645 70.016 73.0364L70.9085 73.4091L71.9001 73.3793L97.1216 72.5345C99.1701 72.4595 101.129 71.6744 102.665 70.3133C103.744 69.3785 104.693 68.3021 105.486 67.1131L144.61 8.11868L149.409 0.863636Z" fill="#4C0519"/>
<path d="M139.051 10.3641L164.955 9.5L144.222 69.0954L118.318 69.9545L139.051 10.3641Z" fill="#F43F5E"/>
<path d="M162.062 11.6292L143.032 67.1296L122.064 67.8503L141.105 12.335L162.062 11.6292ZM168.404 6.90909L140.956 7.8351L137.894 7.93521L136.903 10.8584L115.727 72.5455L146.242 71.5143L147.233 68.5911L168.409 6.90909H168.404Z" fill="#4C0519"/>
<path d="M155.371 68.2223C154.388 68.249 153.408 68.0821 152.489 67.7312C151.571 67.3803 150.73 66.8524 150.016 66.1775C149.298 65.506 148.722 64.6978 148.322 63.8005C147.923 62.9033 147.708 61.9353 147.691 60.9539C147.639 59.9105 147.808 58.8678 148.188 57.8941L162.297 17.3633C162.744 16.1216 163.397 14.9635 164.229 13.937C165.054 12.9077 166.032 12.0109 167.13 11.2782C169.368 9.7785 171.986 8.9408 174.681 8.862L207.4 7.77273H207.623C208.612 7.77337 209.588 8.00036 210.475 8.43619C211.394 8.88452 212.209 9.51851 212.869 10.2979C213.48 11.0187 213.982 11.8243 214.36 12.6893C214.765 13.604 214.992 14.5868 215.03 15.5858C215.071 16.0955 215.03 16.6084 214.911 17.1058V17.1603L200.44 58.7506C200.001 59.8904 199.337 60.9309 198.487 61.8105C197.618 62.7553 196.647 63.6021 195.591 64.3356C194.518 65.0871 193.367 65.7228 192.158 66.2319C190.98 66.7566 189.716 67.0636 188.428 67.138L155.714 68.2273L155.371 68.2223ZM177.498 46.7142L182.744 46.5359C182.778 46.5105 182.81 46.4824 182.839 46.4518L188.199 31.0188L182.888 31.1921L177.498 46.7142Z" fill="#F43F5E"/>
<path d="M207.985 10.4716C208.634 10.4716 209.275 10.6203 209.858 10.9063C210.496 11.2212 211.063 11.6633 211.523 12.2054C211.994 12.7596 212.38 13.3806 212.668 14.048C212.961 14.6977 213.129 15.3964 213.163 16.1079C213.188 16.383 213.178 16.6602 213.134 16.9329L198.713 58.388C198.374 59.2394 197.868 60.0151 197.226 60.6702C196.467 61.4918 195.622 62.2288 194.704 62.8684C193.761 63.5266 192.751 64.083 191.691 64.5282C190.777 64.9368 189.796 65.1777 188.796 65.2396L156.173 66.3362H155.916C155.219 66.3606 154.524 66.2469 153.872 66.0019C153.219 65.7568 152.622 65.3852 152.115 64.9086C151.349 64.1634 150.817 63.2127 150.583 62.1718C150.349 61.1309 150.423 60.0446 150.797 59.045L164.89 18.5383C165.255 17.5403 165.783 16.6091 166.451 15.7819C167.137 14.9323 167.947 14.1911 168.855 13.5837C170.738 12.3284 172.939 11.6281 175.203 11.5633L207.841 10.4765H207.985M176.031 49.3926H176.06L183.717 49.1357C184.07 49.0715 184.394 48.8987 184.644 48.6417C184.973 48.3846 185.227 48.0431 185.377 47.6537L191.359 30.4828L191.463 30.1272C191.496 30.0117 191.513 29.8918 191.512 29.7715C191.512 29.3615 191.235 29.154 190.729 29.154H190.665L183.003 29.4109C182.791 29.4118 182.581 29.4561 182.387 29.5411C182.193 29.6261 182.018 29.7499 181.873 29.9049C181.612 30.1705 181.411 30.4889 181.284 30.8385L175.337 48.0242C175.288 48.1567 175.272 48.2993 175.292 48.4392C175.294 48.6901 175.375 48.9341 175.525 49.1357C175.585 49.2228 175.666 49.2937 175.76 49.342C175.855 49.3903 175.959 49.4145 176.065 49.4123M208.019 6.04545H207.712L175.054 7.1174C171.95 7.21019 168.935 8.17602 166.357 9.90347C165.072 10.7623 163.925 11.8117 162.958 13.0156C161.985 14.2226 161.218 15.5811 160.688 17.0366V17.0959L146.634 57.4791C146.044 58.9735 145.834 60.5896 146.021 62.1845C146.207 63.7794 146.786 65.3038 147.705 66.6226C148.623 67.9415 149.854 69.0142 151.288 69.7458C152.722 70.4773 154.315 70.8451 155.926 70.8166H156.332L188.965 69.7299C190.503 69.6467 192.014 69.2887 193.425 68.6728C194.777 68.1048 196.065 67.3944 197.266 66.5536C198.453 65.7294 199.545 64.7768 200.521 63.7132C201.573 62.6168 202.39 61.3195 202.925 59.8996L217.346 18.4346L217.386 18.3259L217.415 18.2123C217.604 17.4923 217.673 16.7463 217.618 16.0042C217.575 14.7262 217.285 13.4685 216.766 12.2993C216.3 11.2371 215.681 10.2486 214.928 9.36503C214.075 8.3553 213.02 7.53423 211.83 6.95439C210.636 6.36628 209.322 6.06033 207.99 6.06027L208.019 6.04545ZM184.961 33.7925H185.486L181.67 44.759H181.145L184.961 33.7777V33.7925Z" fill="#4C0519"/>
<path d="M202.795 52.9452L203.034 52.6427C208.921 45.3194 214.814 38.1499 220.552 31.3224C226.29 24.495 232.163 17.6774 237.98 11.0334L238.055 10.9491L238.135 10.8698C239.016 10.0275 239.971 9.26585 240.989 8.59397C241.857 8.04989 242.77 7.58206 243.719 7.19576L244.097 7.0371L273.773 6.04545L253.097 65.544L197.773 67.3636L202.795 52.9452ZM237.941 45.0963H238.393L238.751 44.065C238.478 44.3823 238.209 44.7492 237.941 45.0963Z" fill="#F43F5E"/>
<path d="M270.872 8.10447L251.841 62.7842L201.537 64.4558L205.353 53.5336C211.234 46.2161 217.035 39.1664 222.756 32.3846C228.478 25.6029 234.253 18.8885 240.08 12.2416C240.858 11.4926 241.703 10.8158 242.604 10.2199C243.358 9.73587 244.151 9.31686 244.975 8.96739L270.867 8.10447M245.47 32.3057C243.316 34.8403 241.278 37.3238 239.357 39.7565C237.437 42.1891 235.574 44.6086 233.769 47.0149L240.417 46.793L245.47 32.3057ZM277.203 3.45455L244.832 4.53443L244.01 4.55909L243.258 4.87467C242.191 5.32408 241.166 5.86525 240.194 6.49203C239.069 7.23219 238.014 8.07224 237.041 9.00191L236.878 9.15477L236.729 9.32242C230.918 15.9546 225.073 22.7495 219.356 29.5395C213.639 36.3294 207.754 43.435 201.884 50.7427L201.389 51.3394L201.136 52.0593L195.182 69.0909L255.038 67.1037L256.028 64.2191L275.104 9.55911L277.227 3.45455H277.203Z" fill="#4C0519"/>
<path d="M273.723 5.37795L303.218 4.38361L304.222 21.9504L310.314 4.14255L330.773 3.45455L310.09 63.713L280.526 64.7123L279.641 47.2309L273.559 64.9433L253.045 65.6364L273.723 5.37795Z" fill="#F43F5E"/>
<path d="M327.891 6.37057L308.851 60.9723L283.118 61.8242L281.761 35.5007L272.457 62.1787L256.791 62.6957L275.831 8.08903L301.509 7.23718L303.04 33.4966L312.28 6.90728L327.886 6.38534M334.227 1.72727L309.069 2.56435L308.078 5.44486L306.196 10.8612L305.968 6.98114L305.705 2.67267L301.38 2.82039L272.645 3.75594L271.654 6.61184L250.455 67.3636L272.605 66.625L275.667 66.5266L276.658 63.651L278.466 58.466L278.873 66.4182L308.985 65.4187L312.047 65.3202L313.038 62.4397L334.227 1.72727Z" fill="#4C0519"/>
<path d="M330.767 4.09417L376.545 2.59091L369.296 23.2877H369.311L363.292 40.305L343.462 40.9535L343.333 41.3317L363.975 40.6538L351.629 61.6748L310.045 63.0455L330.767 4.09417Z" fill="#F43F5E"/>
<path d="M373.661 4.67168L367.312 23.0413L347.561 23.7002L346.698 26.207L366.449 25.5481L362.035 38.1909L342.279 38.8497L340.612 43.7394L360.368 43.1003L350.711 59.7361L313.803 60.9647L332.86 6.03405L373.661 4.67168ZM380 0L329.646 1.67943L328.654 4.5726L307.455 65.6364L350.86 64.1898L353.34 64.1105L364.232 45.3148L368.27 38.3791L366.687 38.4287L370.655 27.0343L372.803 20.8913H372.773L380 0Z" fill="#4C0519"/>
<path d="M75.1364 14.6818L56.179 69.986L6.04545 71.6818L9.84876 60.629C15.7091 53.2338 21.4905 46.1046 27.193 39.2415C32.8955 32.3784 38.6506 25.585 44.4583 18.8616C45.2343 18.1082 46.0745 17.4255 46.9692 16.8216C47.7192 16.3282 48.5117 15.9041 49.337 15.5547L75.1364 14.6818ZM38.1392 54.0352L44.7691 53.8107L49.8007 39.1617C47.6598 41.7254 45.6357 44.2359 43.7283 46.6932C41.8209 49.1505 39.9644 51.5978 38.159 54.0352H38.1392Z" fill="#F43F5E"/>
<path d="M100.971 13.8426L94.9472 43.6203L119.618 6.74348L140.773 6.04545L101.606 64.8483C101.044 65.6989 100.365 66.4656 99.5877 67.1255C98.8278 67.8153 97.8475 68.2135 96.8212 68.2493L71.6006 69.0909C71.1615 68.9076 70.7761 68.6164 70.4801 68.2444C70.1123 67.6283 69.9395 66.9156 69.9843 66.1998L69.9545 65.378C69.9594 65.079 69.9893 64.7809 70.0438 64.4869L80.1132 14.5406L100.971 13.8426Z" fill="#F43F5E"/>
<path d="M121.773 67.3636L140.684 12.7848L161.5 12.0909L142.598 66.655L121.773 67.3636Z" fill="#F43F5E"/>
<path d="M150.612 59.1654L164.777 18.4705C165.144 17.4679 165.674 16.5323 166.346 15.7013C167.035 14.8477 167.849 14.1031 168.762 13.4929C170.657 12.228 172.872 11.5226 175.152 11.4581L207.955 10.3663C208.657 10.3415 209.353 10.4898 209.983 10.7981C210.624 11.1144 211.194 11.5587 211.656 12.1033C212.13 12.66 212.518 13.2839 212.807 13.9544C213.101 14.6072 213.27 15.3091 213.305 16.0239C213.33 16.3003 213.32 16.5788 213.275 16.8527L198.781 58.5004C198.44 59.3557 197.932 60.135 197.287 60.7932C196.524 61.6185 195.674 62.359 194.751 63.0016C193.804 63.6628 192.789 64.2218 191.723 64.6691C190.805 65.0795 189.819 65.3216 188.814 65.3838L156.026 66.4855C155.284 66.5399 154.539 66.441 153.837 66.1951C153.135 65.9491 152.491 65.5614 151.947 65.0562C151.177 64.3076 150.642 63.3524 150.407 62.3067C150.172 61.2609 150.247 60.1697 150.622 59.1654H150.612ZM185.378 47.751L191.389 30.4656L191.494 30.1083C191.528 29.9922 191.545 29.8718 191.544 29.751C191.544 29.3192 191.245 29.1108 190.692 29.1306L182.992 29.3887C182.779 29.3896 182.568 29.4341 182.372 29.5195C182.177 29.6048 182.001 29.7292 181.856 29.8849C181.594 30.1518 181.392 30.4717 181.264 30.8229L175.287 48.0884C175.237 48.2215 175.222 48.3648 175.242 48.5053C175.243 48.7574 175.325 49.0025 175.476 49.2051C175.54 49.2963 175.626 49.3698 175.726 49.4184C175.826 49.4671 175.937 49.4893 176.049 49.483L183.744 49.2249C184.099 49.1604 184.424 48.9869 184.675 48.7286C184.994 48.4659 185.236 48.1233 185.378 47.7361V47.751Z" fill="#F43F5E"/>
<path d="M270.318 7.77273L251.354 63.0819L201.227 64.7727L205.03 53.7249C210.89 46.323 216.67 39.1922 222.372 32.3324C228.073 25.4726 233.828 18.6809 239.635 11.9574C240.41 11.1998 241.252 10.5153 242.15 9.91247C242.901 9.42291 243.691 8.99907 244.513 8.64558L270.318 7.77273ZM233.326 47.1311L239.95 46.9066L244.986 32.2526C242.842 34.8163 240.812 37.3285 238.895 39.7891C236.978 42.2497 235.128 44.697 233.346 47.1311H233.326Z" fill="#F43F5E"/>
<path d="M301.041 6.90788L302.566 33.4936L311.774 6.57388L327.318 6.04545L308.354 61.3007L282.723 62.1631L281.371 35.5126L272.104 62.522L256.5 63.0455L275.464 7.76034L301.041 6.90788Z" fill="#F43F5E"/>
<path d="M350.243 60.0741L313.5 61.3182L332.471 5.69766L373.091 4.31818L366.77 22.9186L347.108 23.5857L346.248 26.124L365.911 25.4568L361.516 38.2583L341.849 38.9255L340.189 43.8766L359.857 43.2295L350.243 60.0741Z" fill="#F43F5E"/>
<path d="M202.091 47.5L198.235 58.5831C197.895 59.429 197.393 60.2009 196.757 60.8557C196.004 61.6734 195.164 62.4059 194.25 63.04C193.316 63.6941 192.314 64.2455 191.261 64.6843C190.352 65.0918 189.378 65.3329 188.384 65.396L155.962 66.4856C155.228 66.5395 154.491 66.4417 153.797 66.1984C153.103 65.9552 152.467 65.5717 151.928 65.072C151.421 64.6043 151.014 64.0393 150.731 63.4109C150.449 62.7825 150.296 62.1038 150.283 61.4153C150.235 60.6744 150.351 59.932 150.623 59.2409L152.953 52.5507L202.091 47.5Z" fill="#BE123C"/>
<path d="M264.322 40.5438L280.682 38.8636L272.456 62.5172L256.5 63.0455L264.322 40.5438Z" fill="#BE123C"/>
<path d="M317.818 35.4091L308.742 61.3199L282.737 62.1818L281.545 39.1043L317.818 35.4091Z" fill="#BE123C"/>
<path d="M147.682 52.924L142.827 66.6758L121.773 67.3636L129.403 45.7677L142.439 44.9091L137.923 53.9094L147.682 52.924Z" fill="#BE123C"/>
<path d="M73.8976 49.3619L114 46.6364L101.987 64.8721C101.43 65.7141 100.761 66.4752 99.9991 67.1343C99.2488 67.8184 98.2838 68.2144 97.2732 68.2531L72.4174 69.0909C71.9845 68.9067 71.6047 68.6151 71.3134 68.2432C70.9516 67.6314 70.7814 66.9237 70.8248 66.2126V65.3945C70.8248 65.0966 70.8543 64.7994 70.9128 64.5073L73.8976 49.3619Z" fill="#BE123C"/>
<path d="M259.091 41.4545L251.542 63.1001L201.227 64.7727L205.044 53.8712C207.09 51.3328 209.125 48.8272 211.148 46.3543L236.186 43.806C235.27 45.0015 234.359 46.1969 233.468 47.3874L240.117 47.166L241.483 43.2649L259.091 41.4545Z" fill="#BE123C"/>
<path d="M341.976 38.8348L340.309 43.8009L360.06 43.1361L350.403 60.0641L313.5 61.3182L322.612 34.599L364.455 30.2273L361.727 38.1649L341.976 38.8348Z" fill="#BE123C"/>
<path d="M45.6772 51.2834L63.0455 50.0909L56.2533 69.9782L6.04545 71.6818L9.85402 60.5782C11.7838 58.1297 13.7037 55.7145 15.6138 53.3328L39.8977 51.6743C39.3296 52.4359 38.7616 53.1775 38.2034 53.9541L44.8572 53.7587L45.6772 51.2834Z" fill="#BE123C"/>
<path d="M237.431 103.274L233.777 102.962C236.678 102.819 237.431 103.274 237.431 103.274Z" fill="#4C0519"/>
<path d="M235.697 102.962C237.035 103.038 237.431 103.277 237.431 103.277L233.777 102.962C234.415 102.932 235.052 102.932 235.69 102.962H235.697Z" fill="#4C0519"/>
<path d="M237.431 103.274L233.777 102.962C236.678 102.819 237.431 103.274 237.431 103.274Z" fill="#4C0519"/>
<path d="M235.697 102.962C237.035 103.038 237.431 103.277 237.431 103.277L233.777 102.962C234.415 102.932 235.052 102.932 235.69 102.962H235.697Z" fill="#4C0519"/>
<path d="M273.536 69.554C258.282 54.819 231.374 58.5522 231.374 58.5522L108.124 78.3006L85.1682 64.322L81.7015 64.1277L92.0287 80.8784L95.0169 88.2199C96.7503 92.522 101.371 95.5231 106.731 95.8527C116.656 96.4668 133.885 97.5216 152.91 98.6526C152.91 98.6526 110.825 130.381 103.43 139.308C99.1388 144.492 118.805 144.731 124.834 143.243C196.177 110.4 222.85 103.975 232.411 103.069C238.28 103.326 242.558 103.475 244.568 103.458C259.09 103.354 288.792 84.2854 273.536 69.554ZM233.777 102.962C236.678 102.816 237.431 103.271 237.431 103.271L233.777 102.962Z" fill="#4C0519"/>
<path d="M243.23 58.2538C252.354 58.7604 264.838 61.1543 273.536 69.554C288.789 84.2854 259.09 103.354 244.568 103.458C242.558 103.458 238.28 103.326 232.411 103.069C222.85 103.975 196.177 110.4 124.82 143.256C122.22 143.895 117.089 144.221 112.43 143.95C106.287 143.603 100.99 142.261 103.417 139.312C110.811 130.388 152.896 98.6561 152.896 98.6561C133.871 97.525 116.642 96.4703 106.717 95.8562C101.357 95.5301 96.7503 92.5255 95.0031 88.2233L92.0148 80.8958L81.6876 64.1277L85.1543 64.322L108.124 78.3006L231.364 58.5522C235.299 58.1013 239.266 57.9968 243.22 58.24L243.23 58.2538ZM237.431 103.274C237.431 103.274 237.028 103.035 235.697 102.958C235.06 102.924 234.421 102.924 233.784 102.958L237.431 103.274ZM243.466 55.3256C239.249 55.0662 235.016 55.1823 230.82 55.6725H230.74L108.96 75.1815L87.1927 61.9384L86.385 61.4492L85.3866 61.4076L75.7666 60.8664L78.6301 65.4912L88.8532 82.058L91.7548 89.2017C93.9492 94.6176 99.7524 98.3993 106.498 98.8122C115.758 99.3812 129.333 100.2 144.531 101.126C132.478 110.341 106.464 130.562 100.591 137.657C98.7609 139.867 99.3572 141.73 99.8772 142.646C101.285 145.137 105.323 146.532 112.218 146.913C117.162 147.187 122.747 146.854 125.804 146.098L126.151 146.011L126.48 145.862C157.715 131.477 183.493 120.732 203.093 113.925C219.432 108.253 228.091 106.497 232.522 106.039C238.679 106.306 242.63 106.435 244.596 106.421C250.028 106.383 257.239 104.107 263.891 100.335C271.047 96.2795 276.496 91.1967 279.231 86.0202C280.878 82.8977 281.516 79.8237 281.135 76.8434C280.708 73.5266 279.027 70.4283 276.139 67.6423C266.62 58.4516 253.11 55.8981 243.452 55.3499L243.466 55.3256Z" fill="#4C0519"/>
<path d="M224.053 63.4616C223.879 55.1348 202.261 41.4441 162.53 70.4005C184.21 74.3766 224.257 73.6341 224.053 63.4616Z" fill="#4C0519"/>
<path d="M207.271 52.8935C218.215 53.5006 223.956 59.1871 224.046 63.4615C224.209 71.2402 200.819 73.5057 180.109 72.3573C174.213 72.0613 168.34 71.4043 162.523 70.3901C181.857 56.297 196.898 52.3071 207.271 52.8969V52.8935ZM207.496 49.9583C198.053 49.4344 182.214 52.1649 160.266 68.1592L154.99 72.0034L161.792 73.2525C167.776 74.3027 173.819 74.9817 179.888 75.2856C196.649 76.2189 217.168 75.1052 224.486 69.1932C226.514 67.5729 227.561 65.5537 227.519 63.4095C227.377 57.3414 219.865 50.6522 207.496 49.9583Z" fill="#4C0519"/>
<path d="M237.462 102.844L233.811 102.535C236.709 102.386 237.462 102.844 237.462 102.844Z" fill="#F43F5E"/>
<path d="M237.462 102.844L233.811 102.535C236.709 102.386 237.462 102.844 237.462 102.844Z" fill="#F43F5E"/>
<path d="M273.57 69.1238C258.317 54.3888 231.405 58.1324 231.405 58.1324L108.169 77.8669L85.2028 63.8918L81.7362 63.6975L92.0599 80.4482L95.0481 87.7862C96.7815 92.0883 101.406 95.0929 106.765 95.419C116.687 96.0331 133.916 97.0879 152.945 98.2224C152.945 98.2224 110.86 129.947 103.462 138.874C99.1734 144.058 118.84 144.297 124.868 142.809C196.195 109.967 222.871 103.552 232.445 102.636C238.315 102.896 242.589 103.042 244.603 103.028C259.125 102.92 288.827 83.8552 273.57 69.1238ZM233.811 102.535C236.709 102.386 237.462 102.844 237.462 102.844L233.811 102.535Z" fill="#BE123C"/>
<path d="M276.278 84.0287L170.056 91.8593L173.738 86.1833L105.614 83.5777L81.7223 63.6975L85.189 63.8918L108.152 77.8669L231.388 58.1324C231.388 58.1324 258.293 54.3888 273.553 69.1238C278.517 73.8978 278.739 79.1332 276.278 84.0287Z" fill="#F43F5E"/>
<path d="M278.745 104.93C268.24 106.036 257.817 93.9811 255.473 78.0074C254.955 74.5748 254.862 71.0913 255.196 67.6359C256.314 56.4246 262.115 47.9273 270.251 47.0704C280.762 45.9643 291.181 58.0189 293.526 73.9892C293.795 75.8156 293.95 77.657 293.99 79.5027C294.286 93.0423 288.012 103.95 278.745 104.93Z" fill="#4C0519"/>
<path d="M282.639 101.126C272.586 103.107 260.799 93.5421 256.383 79.7647C255.424 76.8313 254.864 73.7819 254.719 70.6989C254.292 60.7623 258.785 52.7547 266.582 51.2212C276.635 49.2401 288.401 58.809 292.835 72.5863C293.34 74.1536 293.74 75.7532 294.031 77.3742C296.118 89.2156 291.51 99.3777 282.639 101.126Z" fill="#DBEEF0"/>
<path d="M277.786 80.8715C275.224 81.1386 272.686 78.2069 272.114 74.3141C271.986 73.4796 271.962 72.6322 272.045 71.7918C272.319 69.0613 273.733 66.99 275.716 66.7819C278.275 66.5112 280.816 69.4464 281.388 73.3392C281.454 73.7827 281.491 74.2301 281.499 74.6784C281.558 77.9814 280.036 80.6321 277.786 80.8715Z" fill="#4C0519"/>
<path d="M278.521 81.496C276.094 81.9713 273.293 79.678 272.232 76.3785C272.002 75.6759 271.868 74.9452 271.834 74.2066C271.73 71.8265 272.808 69.9079 274.673 69.5436C277.099 69.0648 279.9 71.3581 280.965 74.6576C281.085 75.0337 281.18 75.4174 281.249 75.806C281.752 78.6441 280.649 81.0762 278.521 81.496Z" fill="#DBEEF0"/>
<path d="M224.077 63.0313C224.198 68.645 212.044 71.3893 197.481 72.052C185.67 72.5828 173.706 70.7163 163.996 68.9295C201.655 41.4893 221.626 53.4035 223.876 61.699C223.998 62.1331 224.065 62.5806 224.077 63.0313Z" fill="#DBEEF0"/>
<path d="M114.194 138.031L173.474 100.665L219.019 98.6283C219.019 98.6283 139.002 132.158 114.194 138.031Z" fill="#F43F5E"/>
<path d="M193.283 72.2081C194.669 72.2081 196.08 72.17 197.47 72.0485C212.03 71.3893 224.188 68.645 224.067 63.0279C224.055 62.5771 223.988 62.1295 223.866 61.6956C224.004 61.588 224.07 61.529 224.07 61.529C234.134 72.1006 202.442 73.3774 193.283 72.2081Z" fill="#4C0519"/>
</svg>
